<svg xmlns="http://www.w3.org/2000/svg" width="12" height="12" viewBox="0 0 12 12" fill="none">
<rect width="12" height="12" fill="#E5E5E5"/>
<g id="Desktop - 1">
<rect width="1440" height="1515" transform="translate(-254 -806)" fill="#FFDF8C"/>
<g id="Rectangle 1" filter="url(#filter0_d_0_1)">
<rect x="-209" y="-763" width="1340" height="1409" rx="10" fill="white"/>
</g>
<g id="Group 18">
<g id="Group 19">
<rect id="Rectangle 3" x="-16.5" y="-13.5" width="154" height="39" rx="19.5" fill="white" stroke="#21722e"/>
<path id="Vector" d="M10.8 4.8H7.2V1.2C7.2 0.5373 6.6627 0 6 0C5.3373 0 4.8 0.5373 4.8 1.2V4.8H1.2C0.5373 4.8 0 5.3373 0 6C0 6.6627 0.5373 7.2 1.2 7.2H4.8V10.8C4.8 11.4627 5.3373 12 6 12C6.6627 12 7.2 11.4627 7.2 10.8V7.2H10.8C11.4627 7.2 12 6.6627 12 6C12 5.3373 11.4627 4.8 10.8 4.8Z" fill="#21722e"/>
</g>
</g>
<g id="Group 48">
<g id="Group 19_2">
<rect id="Rectangle 3_2" x="-16.5" y="-13.5" width="154" height="39" rx="19.5" fill="white" stroke="#21722e"/>
<path id="Vector_2" d="M10.8 4.8H7.2V1.2C7.2 0.5373 6.6627 0 6 0C5.3373 0 4.8 0.5373 4.8 1.2V4.8H1.2C0.5373 4.8 0 5.3373 0 6C0 6.6627 0.5373 7.2 1.2 7.2H4.8V10.8C4.8 11.4627 5.3373 12 6 12C6.6627 12 7.2 11.4627 7.2 10.8V7.2H10.8C11.4627 7.2 12 6.6627 12 6C12 5.3373 11.4627 4.8 10.8 4.8Z" fill="#21722e"/>
</g>
</g>
</g>
<defs fill="#000000">
<filter id="filter0_d_0_1" x="-229" y="-768" width="1380" height="1449" filterUnits="userSpaceOnUse" color-interpolation-filters="sRGB" fill="#000000">
<feFlood flood-opacity="0" result="BackgroundImageFix" fill="#000000"/>
<feColorMatrix in="SourceAlpha" type="matrix" values="0 0 0 0 0 0 0 0 0 0 0 0 0 0 0 0 0 0 127 0" result="hardAlpha" fill="#000000"/>
<feOffset dy="15" fill="#000000"/>
<feGaussianBlur stdDeviation="10" fill="#000000"/>
<feColorMatrix type="matrix" values="0 0 0 0 0 0 0 0 0 0 0 0 0 0 0 0 0 0 0.03 0" fill="#000000"/>
<feBlend mode="normal" in2="BackgroundImageFix" result="effect1_dropShadow_0_1" fill="#000000"/>
<feBlend mode="normal" in="SourceGraphic" in2="effect1_dropShadow_0_1" result="shape" fill="#000000"/>
</filter>
</defs>
</svg>